<?xml version="1.0" standalone="no"?>
<!DOCTYPE svg PUBLIC "-//W3C//DTD SVG 20010904//EN"
 "http://www.w3.org/TR/2001/REC-SVG-20010904/DTD/svg10.dtd">
<svg version="1.0" xmlns="http://www.w3.org/2000/svg"
 width="2500.000000pt" height="2500.000000pt" viewBox="0 0 2500.000000 2500.000000"
 preserveAspectRatio="xMidYMid meet">

<g transform="translate(0.000000,2500.000000) scale(0.100000,-0.100000)"
fill="#000000" stroke="none">
<path d="M17461 24959 c-264 -20 -459 -73 -682 -184 -118 -59 -179 -103 -213
-155 -35 -53 -81 -193 -100 -302 -27 -156 -39 -522 -33 -1018 7 -493 15 -658
47 -887 35 -254 27 -457 -36 -833 -34 -206 -46 -230 -123 -270 -119 -60 -149
-64 -453 -65 l-276 0 -191 -130 -191 -129 -143 48 c-117 40 -158 50 -232 54
-112 5 -155 -10 -340 -125 -224 -139 -227 -140 -455 -153 -295 -17 -446 -67
-705 -236 -134 -87 -204 -113 -640 -239 -482 -139 -839 -250 -1320 -410 -1022
-340 -2287 -818 -2910 -1098 -807 -363 -2463 -1289 -3255 -1821 -1142 -767
-2137 -1884 -2731 -3067 -335 -669 -576 -1547 -556 -2028 6 -150 25 -221 72
-268 70 -70 107 -46 470 307 405 393 977 874 1615 1357 464 350 733 530 1168
777 173 98 345 203 576 349 l159 101 96 -100 c316 -328 531 -780 675 -1419 68
-306 102 -513 196 -1190 90 -651 267 -1120 577 -1533 311 -414 759 -769 1225
-972 490 -212 989 -304 1903 -350 325 -16 715 -48 870 -71 530 -77 970 -236
1330 -480 225 -153 374 -291 610 -569 340 -400 420 -479 578 -575 42 -25 77
-48 77 -50 0 -2 -29 -77 -64 -167 -165 -420 -277 -886 -296 -1229 -18 -345
-35 -999 -55 -2194 l-14 -831 -76 -177 c-41 -98 -98 -248 -126 -335 -103 -318
-153 -437 -269 -637 -205 -354 -281 -651 -226 -878 35 -147 128 -299 233 -382
176 -139 464 -268 724 -324 336 -72 933 -41 1273 66 167 53 248 112 288 212
21 51 23 72 23 236 -1 199 -12 276 -85 585 -66 277 -70 313 -79 630 -7 229
-14 324 -31 424 -19 107 -20 137 -11 180 6 28 18 83 25 121 16 74 41 341 51
530 16 310 53 636 86 767 56 224 245 684 514 1253 247 522 305 718 364 1225
30 253 42 506 31 624 -12 127 -4 160 70 266 129 185 207 344 235 477 17 81 28
93 205 226 88 66 194 161 306 272 240 239 327 344 555 667 30 43 59 78 65 78
22 0 106 -270 195 -624 65 -257 88 -377 99 -507 l11 -121 -258 -262 c-298
-302 -352 -371 -461 -598 l-76 -157 -102 6 c-135 8 -156 -1 -184 -74 -82 -219
-17 -989 131 -1542 16 -63 90 -283 164 -490 154 -435 173 -495 220 -680 76
-305 107 -529 107 -796 1 -316 -39 -514 -207 -1035 -95 -294 -127 -444 -128
-600 0 -138 17 -211 76 -325 49 -94 144 -200 216 -239 215 -116 509 -147 1591
-166 719 -13 1117 -32 1569 -76 374 -36 513 -45 766 -51 595 -13 905 62 1106
267 69 71 84 110 83 216 -1 210 -98 280 -749 543 -474 191 -696 297 -1021 487
-147 86 -844 535 -904 583 -45 36 -85 110 -101 186 -17 83 -24 1212 -10 1516
18 369 36 498 175 1259 132 724 140 801 92 886 -28 51 -70 73 -150 81 -46 4
-70 11 -75 22 -22 41 36 279 137 563 132 369 165 558 160 913 l-3 230 87 165
c200 380 304 716 342 1114 29 292 40 710 27 1045 -12 333 -26 500 -67 800 -36
272 -128 818 -159 951 -15 60 -25 114 -23 120 2 6 37 -6 78 -26 243 -117 515
-173 841 -174 l87 0 155 164 c276 292 388 466 548 850 73 175 125 261 262 434
387 490 577 937 594 1397 15 427 -110 753 -405 1057 l-113 117 32 143 c30 131
33 157 33 313 0 291 -48 454 -229 783 -43 78 -44 116 -10 244 47 173 58 263
59 448 0 102 -5 206 -13 250 -36 209 -104 410 -186 554 -136 240 -407 508
-633 628 -122 65 -175 111 -267 233 -90 121 -139 170 -194 192 -20 9 -88 19
-151 23 -133 8 -160 19 -215 86 -48 59 -112 100 -180 115 -44 10 -65 9 -125
-5 -102 -23 -107 -22 -130 25 -30 57 -128 150 -234 220 -124 82 -332 184 -414
203 -37 8 -146 18 -243 22 -210 8 -240 16 -255 64 -15 46 -31 265 -46 642 -13
350 -5 572 37 1023 75 791 90 1052 82 1350 -15 502 -91 696 -337 860 -176 117
-406 180 -745 205 -160 11 -579 11 -734 -1z m691 -349 c452 -43 688 -176 753
-425 66 -254 22 -1174 -85 -1793 -109 -624 -250 -858 -561 -929 -62 -15 -130
-17 -414 -18 -381 0 -476 11 -591 65 -246 118 -405 579 -480 1400 -27 287 -24
784 5 1050 24 221 45 339 66 381 19 36 105 112 168 148 112 64 286 104 522
120 176 12 494 12 617 1z m-1049 -3209 c43 -34 92 -67 110 -71 134 -36 884
-65 1069 -41 109 14 215 77 489 288 83 63 151 114 153 112 10 -12 46 -726 46
-916 l0 -111 -198 -100 c-305 -155 -373 -172 -563 -136 -219 40 -731 187 -999
286 -191 71 -277 113 -294 146 -8 15 -75 107 -149 205 -163 215 -165 221 -143
373 9 60 20 173 23 252 l6 142 186 -183 c102 -100 221 -211 264 -246z m-1132
-327 c207 -35 419 -110 572 -203 199 -120 664 -275 1327 -441 413 -103 511
-111 688 -51 91 30 258 110 426 203 302 168 408 201 564 178 99 -15 245 -68
336 -121 95 -56 292 -254 371 -372 l58 -89 139 7 138 8 113 -111 c61 -60 121
-112 132 -116 11 -3 52 5 90 19 123 43 240 27 293 -40 34 -43 29 -73 -14 -91
-86 -36 -414 -57 -477 -31 -18 8 -67 42 -109 76 -149 119 -347 229 -723 401
-269 122 -307 134 -435 127 -123 -6 -260 -34 -581 -116 -262 -67 -411 -91
-562 -91 -146 0 -268 21 -547 95 -546 143 -647 163 -915 172 -148 5 -165 4
-207 -15 -100 -44 -285 -64 -608 -64 -367 -1 -552 33 -880 162 -192 75 -329
112 -480 130 -116 13 -170 27 -170 43 0 29 186 122 313 157 111 31 187 16 351
-68 82 -42 138 -81 299 -207 97 -75 96 -55 -6 128 l-65 117 79 63 c191 152
279 177 490 141z m-1046 -573 c50 -10 166 -45 259 -76 93 -31 208 -65 255 -75
159 -35 414 -53 741 -53 296 0 311 1 520 33 169 26 246 33 360 33 166 0 202
-6 614 -109 345 -86 453 -105 626 -111 187 -7 290 8 631 93 421 104 587 124
708 88 29 -8 117 -50 195 -93 77 -43 206 -114 286 -158 249 -136 431 -257 594
-391 218 -180 387 -512 458 -902 17 -92 21 -159 22 -335 1 -249 -1 -257 -76
-318 -60 -48 -80 -57 -131 -57 -63 0 -129 22 -326 110 -380 168 -715 272
-1048 326 -154 25 -636 30 -896 10 -443 -35 -850 -101 -1332 -215 -346 -81
-380 -86 -605 -86 -377 0 -465 38 -1070 465 -198 140 -373 258 -393 266 -10 4
-26 -13 -51 -54 -75 -124 -137 -294 -186 -510 -114 -501 -276 -842 -523 -1098
-168 -175 -332 -269 -524 -300 -146 -24 -165 -18 -522 162 -168 84 -307 151
-310 149 -2 -3 88 -98 200 -213 113 -114 233 -243 269 -287 167 -209 333 -505
500 -890 268 -616 460 -936 849 -1411 l66 -80 165 -23 c341 -48 515 -110 705
-251 194 -145 404 -352 449 -442 48 -97 34 -143 -99 -313 -168 -214 -609 -590
-733 -625 -149 -41 -414 62 -435 169 -9 42 -54 89 -171 180 -178 138 -289 275
-349 434 -29 78 -31 89 -29 219 1 164 8 153 -153 273 -251 187 -546 371 -1194
742 -558 320 -758 445 -996 623 -439 329 -628 603 -750 1089 -63 255 -68 369
-21 494 30 78 62 132 171 287 212 303 283 460 415 920 72 250 122 397 161 470
69 130 207 243 359 295 72 24 101 29 190 29 193 1 315 -61 521 -261 66 -63
122 -113 125 -110 13 13 -30 110 -86 194 -85 129 -201 256 -310 339 -114 87
-133 117 -132 214 1 84 52 246 113 360 160 296 435 522 811 666 158 61 407
117 603 138 22 2 126 2 230 1 140 -3 214 -9 280 -24z m-2205 -560 c0 -4 -20
-48 -45 -97 -74 -144 -145 -389 -145 -498 0 -71 -23 -89 -165 -126 -167 -43
-300 -109 -393 -195 -159 -147 -266 -363 -437 -885 -77 -235 -149 -423 -176
-461 -13 -19 -118 -71 -401 -199 -1415 -640 -3623 -1732 -4768 -2358 -681
-372 -1627 -981 -2287 -1473 -558 -416 -900 -709 -1381 -1183 -133 -131 -242
-236 -242 -233 0 23 75 380 105 498 339 1350 1142 2525 2430 3553 433 346 850
629 1495 1013 1678 999 3630 1834 5765 2467 121 36 310 92 420 124 215 64 225
67 225 53z m8315 -291 c237 -20 357 -50 505 -126 171 -88 316 -227 451 -433
114 -174 168 -334 189 -562 18 -195 -1 -376 -65 -609 -67 -246 -65 -235 -50
-288 8 -26 42 -92 76 -147 176 -285 239 -494 239 -795 -1 -316 -46 -402 -305
-579 -149 -103 -285 -227 -285 -260 0 -12 5 -21 11 -21 5 0 63 24 127 54 159
73 239 97 350 103 115 7 194 -9 270 -54 113 -66 193 -187 239 -361 24 -87 26
-116 27 -282 1 -201 -9 -274 -65 -469 -95 -332 -265 -659 -469 -901 -101 -121
-146 -200 -202 -363 -114 -332 -311 -662 -505 -848 -117 -112 -221 -154 -378
-153 -129 1 -265 45 -490 159 -232 117 -256 140 -294 291 -72 287 -105 658
-65 752 16 40 186 212 259 262 82 57 150 72 400 90 241 18 396 49 449 91 20
15 26 29 26 58 0 94 -57 234 -161 392 -101 153 -158 259 -186 344 -23 70 -27
102 -31 247 -9 324 27 400 221 464 45 14 86 30 90 34 4 3 -39 17 -95 30 -225
50 -462 150 -553 233 l-49 44 33 89 c18 49 74 179 123 289 122 270 163 375
200 513 31 113 32 123 32 327 1 116 -2 235 -6 266 l-8 55 83 34 c290 117 332
167 373 442 44 299 -28 647 -202 977 -95 180 -198 320 -412 561 -41 46 -50 60
-35 60 10 0 72 -5 138 -10z m-5579 -1042 c16 -12 72 -61 124 -108 188 -170
340 -271 595 -395 209 -102 329 -147 465 -175 92 -19 126 -21 275 -17 183 6
155 1 710 122 397 86 545 105 1015 126 318 14 783 6 930 -16 429 -66 1047
-260 1119 -351 41 -52 60 -237 42 -409 -25 -229 -96 -479 -217 -757 -147 -338
-168 -387 -210 -499 -157 -420 -212 -734 -239 -1383 -8 -198 -16 -361 -18
-362 -18 -18 -756 -72 -1222 -90 -251 -9 -650 24 -869 72 -340 75 -882 298
-1325 546 -240 134 -245 139 -281 304 -24 111 -100 620 -100 669 0 52 12 68
81 109 80 48 228 160 299 226 46 42 52 53 39 60 -9 5 -119 9 -245 8 -205 -1
-237 1 -306 20 -260 72 -517 267 -915 694 -233 250 -220 232 -199 276 10 20
49 90 88 155 153 257 194 408 218 807 15 258 28 327 68 373 20 23 43 22 78 -5z
m-866 -1884 c288 -292 547 -513 890 -759 91 -65 177 -129 193 -144 48 -44 91
-218 166 -666 52 -310 56 -355 38 -443 -9 -42 -21 -109 -27 -149 -17 -108 -19
-110 -122 -84 -47 11 -170 34 -274 51 -104 17 -198 32 -209 35 -31 7 -337 417
-449 604 -132 217 -211 397 -357 811 -45 129 -107 296 -137 370 -86 215 -103
262 -100 282 2 13 49 44 148 98 80 43 147 79 150 79 3 1 44 -38 90 -85z
m-3514 -534 c13 -25 46 -95 72 -156 97 -222 229 -412 422 -604 263 -263 508
-414 1470 -905 675 -344 916 -479 1125 -629 66 -47 130 -94 142 -104 18 -15
24 -36 37 -152 26 -235 62 -308 255 -533 120 -140 158 -202 167 -274 12 -100
87 -179 236 -247 40 -19 102 -42 138 -51 97 -25 160 -54 160 -75 0 -40 -103
-316 -137 -367 -77 -117 -514 -554 -854 -855 -1009 -893 -2177 -1601 -3039
-1843 -198 -55 -411 -75 -830 -75 -776 0 -1235 96 -1783 371 -662 333 -1038
836 -1282 1713 l-36 129 52 131 c63 162 234 514 359 741 525 958 1393 2021
2636 3229 431 419 634 607 653 604 8 -2 24 -23 37 -48z m9644 -576 c85 -41
156 -76 157 -77 1 -2 -15 -50 -35 -107 -33 -97 -36 -114 -36 -220 -1 -131 13
-190 74 -311 50 -102 100 -174 214 -310 110 -132 152 -203 143 -240 -12 -49
-38 -53 -378 -59 l-315 -5 -97 -47 c-53 -27 -101 -48 -106 -48 -31 0 16 574
80 960 29 177 118 540 133 540 6 0 81 -34 166 -76z m-4045 -1115 c354 -121
868 -261 1118 -304 314 -54 641 -77 1097 -77 361 0 577 10 895 43 104 10 195
19 201 19 8 0 13 -67 17 -212 9 -312 40 -513 173 -1128 211 -969 326 -1837
350 -2625 14 -457 -44 -885 -170 -1270 -83 -249 -171 -422 -299 -583 l-50 -64
2 -71 c1 -40 6 -157 11 -261 16 -327 -10 -524 -116 -886 -101 -341 -166 -508
-209 -536 -66 -43 -964 -103 -1266 -84 -268 17 -691 74 -741 101 -17 9 -20 18
-16 54 9 76 118 272 226 404 109 133 286 232 497 277 l135 29 0 70 c0 106 -18
296 -41 435 -49 297 -143 599 -350 1130 -67 173 -122 320 -122 325 0 6 27 82
61 170 132 351 189 609 312 1425 88 581 153 960 199 1155 22 93 38 172 36 174
-9 8 -46 -47 -94 -139 -90 -174 -185 -469 -356 -1100 -296 -1095 -358 -1287
-518 -1607 -155 -310 -320 -549 -561 -814 -115 -127 -227 -230 -411 -378 -192
-155 -212 -180 -234 -301 -37 -202 -97 -312 -315 -585 -139 -175 -223 -298
-277 -409 -80 -163 -42 -168 117 -14 l61 60 7 -48 c11 -85 6 -387 -9 -519 -51
-443 -187 -879 -487 -1565 -307 -700 -333 -804 -368 -1500 -15 -302 -35 -499
-52 -516 -16 -15 -194 -26 -343 -21 -228 8 -397 40 -689 132 l-119 37 7 71
c33 350 69 860 101 1407 58 1000 106 1371 266 2035 82 345 100 404 150 513
118 257 416 698 762 1128 53 67 97 126 97 132 0 6 -22 90 -50 187 -108 387
-155 718 -167 1180 -16 669 92 1493 302 2300 54 205 180 654 186 659 2 1 78
53 169 114 239 160 360 261 585 486 284 285 332 352 322 458 -10 114 -69 207
-251 397 -154 160 -150 149 -117 309 11 52 25 137 31 190 6 53 13 103 15 110
3 9 20 5 62 -15 32 -14 135 -52 228 -84z m3273 -8306 c-45 -263 -59 -288 -186
-322 -408 -110 -1105 -180 -1657 -168 -283 6 -470 25 -639 62 -168 38 -185 53
-206 180 -15 91 -17 344 -2 371 10 19 17 20 65 14 29 -4 102 -24 163 -43 60
-19 143 -41 184 -47 113 -17 879 -24 1210 -11 404 16 633 41 917 100 204 43
185 60 151 -136z m-133 -790 c-10 -98 -32 -200 -52 -241 -14 -28 -29 -41 -65
-54 -112 -41 -364 -77 -683 -98 -273 -18 -933 -24 -1127 -10 -312 22 -397 42
-431 100 -22 37 -67 232 -60 259 7 28 25 32 106 21 222 -30 478 -42 937 -47
402 -4 511 -2 640 11 205 22 446 60 600 95 69 16 129 30 134 30 4 1 5 -29 1
-66z m-155 -668 c23 -28 29 -282 30 -1247 l0 -966 38 -30 c53 -42 283 -180
549 -328 303 -169 526 -300 708 -416 83 -52 197 -121 255 -153 148 -81 242
-148 330 -235 181 -178 199 -348 56 -507 -31 -34 -60 -56 -84 -63 -86 -24
-327 -4 -857 70 -498 70 -857 103 -1460 135 -425 23 -547 38 -578 74 -26 29
-47 110 -59 231 -10 98 -9 149 3 287 8 92 14 170 12 172 -2 3 -57 10 -123 18
-149 16 -288 43 -451 89 -137 39 -202 69 -207 98 -2 9 26 104 62 209 95 279
99 313 93 717 -11 651 -91 1118 -269 1565 -22 55 -48 121 -58 147 l-19 46 652
-1 c554 -2 679 1 832 15 192 19 389 49 470 72 65 18 61 18 75 1z m-5157 -2130
c362 -23 431 -41 481 -128 55 -96 112 -312 123 -468 l6 -91 -82 43 c-103 53
-109 50 -93 -58 25 -163 144 -596 233 -853 120 -344 131 -400 90 -478 -46 -89
-138 -158 -251 -189 -56 -16 -108 -18 -390 -18 -548 1 -777 36 -1015 159 -78
40 -117 68 -176 126 -128 128 -176 263 -151 431 36 252 196 443 669 801 95 73
173 135 173 138 0 8 -54 -1 -190 -29 -133 -29 -137 -28 -149 17 -7 25 -7 58
-1 100 24 145 84 248 238 405 l106 107 63 0 c36 0 178 -7 316 -15z"/>
</g>
</svg>
