<?xml version="1.0" standalone="no"?>
<!DOCTYPE svg PUBLIC "-//W3C//DTD SVG 20010904//EN"
 "http://www.w3.org/TR/2001/REC-SVG-20010904/DTD/svg10.dtd">
<svg version="1.0" xmlns="http://www.w3.org/2000/svg"
 width="1080.000000pt" height="1080.000000pt" viewBox="0 0 1080.000000 1080.000000"
 preserveAspectRatio="xMidYMid meet">

<g transform="translate(0.000000,1080.000000) scale(0.100000,-0.100000)"
fill="#000000" stroke="none">
<path d="M3210 10769 c-1099 -9 -2041 -26 -2130 -39 -30 -5 -72 -13 -92 -19
-21 -6 -53 -15 -71 -19 -18 -5 -49 -16 -70 -25 -20 -10 -54 -24 -74 -33 -155
-67 -375 -248 -494 -406 -52 -69 -130 -207 -158 -280 -6 -16 -15 -38 -21 -50
-5 -13 -25 -70 -45 -126 l-35 -104 0 -4274 0 -4275 30 -90 c16 -49 37 -106 46
-127 9 -20 19 -46 23 -57 5 -11 30 -64 57 -117 80 -161 181 -285 329 -408 70
-57 217 -150 272 -171 15 -5 41 -17 58 -24 16 -8 62 -23 100 -35 39 -11 84
-25 100 -31 87 -30 637 -34 4360 -34 3897 0 4256 3 4385 41 30 9 69 19 85 23
34 9 76 27 182 78 185 89 422 318 551 531 18 29 32 55 32 57 0 3 9 27 21 53
12 26 25 56 30 67 22 53 50 157 59 225 24 186 35 1528 35 4295 0 2772 -11
4088 -35 4280 -14 109 -48 216 -113 355 -97 205 -365 481 -561 578 -195 97
-278 120 -466 132 -194 13 -3271 40 -4405 38 -528 -1 -1421 -5 -1985 -9z
m-272 -1843 c212 -53 424 -233 529 -450 66 -135 87 -230 87 -391 0 -176 -25
-274 -105 -423 -87 -163 -186 -260 -361 -355 -121 -66 -207 -89 -350 -95 -188
-7 -275 13 -437 99 -83 45 -241 161 -241 178 0 3 -13 20 -29 37 -37 39 -95
129 -131 203 -47 97 -55 148 -55 371 0 187 2 211 23 271 50 146 199 336 341
436 68 48 235 128 287 136 62 11 379 -2 442 -17z m4592 -2231 c102 -8 210 -21
241 -29 83 -22 255 -93 322 -132 32 -19 60 -34 63 -34 28 0 245 -173 336 -268
234 -246 409 -651 450 -1047 8 -78 12 -587 12 -1730 l1 -1620 -724 -3 c-399
-1 -729 2 -733 6 -4 4 -11 656 -14 1448 l-6 1439 -40 100 c-104 262 -224 404
-418 492 -187 85 -448 90 -656 12 -226 -85 -403 -265 -494 -504 -42 -108 -51
-432 -66 -2278 l-6 -717 -707 2 -706 3 -3 2367 c-2 2338 -2 2367 17 2378 14 7
245 9 708 8 l688 -3 3 -295 c1 -162 6 -298 10 -302 5 -5 39 31 75 80 104 139
281 297 452 405 95 59 292 153 385 182 168 54 456 68 810 40z m-4117 -117 c16
-12 17 -163 15 -2378 l-3 -2365 -730 0 -730 0 -3 2372 c-2 2252 -1 2372 15
2376 10 3 333 5 719 6 546 1 704 -2 717 -11z"/>
</g>
</svg>
