<?xml version="1.0" standalone="no"?>
<!DOCTYPE svg PUBLIC "-//W3C//DTD SVG 20010904//EN"
 "http://www.w3.org/TR/2001/REC-SVG-20010904/DTD/svg10.dtd">
<svg version="1.0" xmlns="http://www.w3.org/2000/svg"
 width="32.000000pt" height="32.000000pt" viewBox="0 0 32.000000 32.000000"
 preserveAspectRatio="xMidYMid meet">

<g transform="translate(0.000000,32.000000) scale(0.100000,-0.100000)"
fill="#000000" stroke="none">
<path d="M200 300 c0 -5 17 -10 37 -10 l37 0 -74 -75 c-41 -41 -71 -78 -67
-82 4 -4 41 26 82 67 l75 74 0 -37 c0 -20 5 -37 10 -37 6 0 10 25 10 55 l0 55
-55 0 c-30 0 -55 -4 -55 -10z"/>
<path d="M14 257 c-2 -7 -3 -65 -2 -128 l3 -114 125 0 125 0 3 78 c2 48 -1 77
-8 77 -6 0 -10 -28 -10 -70 l0 -70 -110 0 -110 0 0 110 0 110 70 0 c40 0 70 4
70 10 0 16 -150 13 -156 -3z"/>
</g>
</svg>
